# xmcd
#
# Track frame offsets:
#	150
#	15692
#	31995
#	50178
#	65506
#	78655
#	95631
#	111301
#	128105
#	141475
#	158374
#	176053
#	192306
#	208523
#
# Disc length: 2951 seconds
#
# Revision: 1
# Processed by: cddbd v1.5.1PL2 Copyright (c) Steve Scherf et al.
# Submitted via: audiograbber 1.83.01
#
DISCID=cb0b850e
DTITLE=Star Disc - SD096
DYEAR=1900
DGENRE=Country
TTITLE0=Keith, Toby - Courtesy Of The Red, White And Blue
TTITLE1=Womack, Lee Ann - Something Worth Leaving Behind
TTITLE2=McGraw, Tim - Unbroken
TTITLE3=Chesney, Kenny - The Good Stuff
TTITLE4=Vassar, Phil - American Child
TTITLE5=SHeDaisy - Mine All Mine
TTITLE6=Marcel - Country Rock Star
TTITLE7=Clark Family Experience, The - Going Away
TTITLE8=Atkins, Rodney - Sing Along
TTITLE9=Nail, David - Memphis
TTITLE10=Lynn Howard, Rebecca - Forgive
TTITLE11=Blackhawk - One Night In New Orleans
TTITLE12=Sawyer Brown - Can You Hear Me Now
TTITLE13=Stampley, Tony - Waste Of Good Whiskey
EXTD=
EXTT0=
EXTT1=
EXTT2=
EXTT3=
EXTT4=
EXTT5=
EXTT6=
EXTT7=
EXTT8=
EXTT9=
EXTT10=
EXTT11=
EXTT12=
EXTT13=
PLAYORDER=
